<?xml version="1.0"?>
<svg xmlns="http://www.w3.org/2000/svg" xmlns:xlink="http://www.w3.org/1999/xlink" xmlns:svgjs="http://svgjs.com/svgjs" version="1.1" width="512" height="512" x="0" y="0" viewBox="0 0 512 512" style="enable-background:new 0 0 512 512" xml:space="preserve" class=""><g><g xmlns="http://www.w3.org/2000/svg"><path d="m179 159.001h-179v34h179z" fill="#f11e25" data-original="#000000" style="" class=""/><path d="m512 159.001h-179v34h179c0-11.956 0-23.503 0-34z" fill="#f11e25" data-original="#000000" style="" class=""/><path d="m333 129.001h179c0-10.366 0-17.289 0-19 0-24.813-20.187-45-45-45h-134z" fill="#f11e25" data-original="#000000" style="" class=""/><path d="m179 129.001v-64h-134c-24.813 0-45 20.187-45 45v19z" fill="#f11e25" data-original="#000000" style="" class=""/><path d="m179 223.001h-179v99c0 24.813 20.187 45 45 45h134zm-50 72h-49c-8.284 0-15-6.716-15-15s6.716-15 15-15h49c8.284 0 15 6.716 15 15s-6.716 15-15 15z" fill="#f11e25" data-original="#000000" style="" class=""/><path d="m333 223.001v144h134c24.813 0 45-20.187 45-45 0-6.317 0-51.76 0-99z" fill="#f11e25" data-original="#000000" style="" class=""/><path d="m320 410.001h-17c0-24.574 0-381.955 0-395 0-8.284-6.716-15-15-15h-64c-8.284 0-15 6.716-15 15v395h-17c-12.913 0-19.797 15.307-11.211 24.966l64 72c5.961 6.707 16.457 6.711 22.422 0l64-72c8.579-9.65 1.713-24.966-11.211-24.966z" fill="#f11e25" data-original="#000000" style="" class=""/></g></g></svg>
